<mxfile host="app.diagrams.net" modified="2023-12-15T20:29:32.929Z" agent="Mozilla/5.0 (Windows NT 10.0; Win64; x64) AppleWebKit/537.36 (KHTML, like Gecko) Chrome/120.0.0.0 Safari/537.36" etag="Zsz1UiiadyTeQmWSOmFn" version="22.1.9" type="device">
  <diagram name="PÃ¡gina-1" id="NOuatILEwuTwE6gYMlkE">
    <mxGraphModel dx="1420" dy="758" grid="1" gridSize="10" guides="1" tooltips="1" connect="1" arrows="1" fold="1" page="1" pageScale="1" pageWidth="1169" pageHeight="1654" math="0" shadow="0">
      <root>
        <mxCell id="0" />
        <mxCell id="1" parent="0" />
        <mxCell id="40a3CQeEdQRSA39760IF-2" style="rounded=0;orthogonalLoop=1;jettySize=auto;html=1;endArrow=none;endFill=0;" parent="1" source="yQDmS5JLoApgv4LuObtM-1" target="40a3CQeEdQRSA39760IF-1" edge="1">
          <mxGeometry relative="1" as="geometry" />
        </mxCell>
        <mxCell id="40a3CQeEdQRSA39760IF-4" style="rounded=0;orthogonalLoop=1;jettySize=auto;html=1;endArrow=none;endFill=0;" parent="1" source="yQDmS5JLoApgv4LuObtM-1" target="40a3CQeEdQRSA39760IF-3" edge="1">
          <mxGeometry relative="1" as="geometry" />
        </mxCell>
        <mxCell id="yQDmS5JLoApgv4LuObtM-1" value="Gestor" style="whiteSpace=wrap;html=1;align=center;" parent="1" vertex="1">
          <mxGeometry x="240" y="250.4000000000001" width="100" height="40" as="geometry" />
        </mxCell>
        <mxCell id="40a3CQeEdQRSA39760IF-15" style="rounded=0;orthogonalLoop=1;jettySize=auto;html=1;endArrow=none;endFill=0;" parent="1" source="yQDmS5JLoApgv4LuObtM-2" target="40a3CQeEdQRSA39760IF-14" edge="1">
          <mxGeometry relative="1" as="geometry" />
        </mxCell>
        <mxCell id="mybUD6jqEU3hyF5QfkNe-10" style="rounded=0;orthogonalLoop=1;jettySize=auto;html=1;endArrow=none;endFill=0;" parent="1" source="yQDmS5JLoApgv4LuObtM-2" target="mybUD6jqEU3hyF5QfkNe-9" edge="1">
          <mxGeometry relative="1" as="geometry" />
        </mxCell>
        <mxCell id="SqEPEDOolsHn98omc2Y8-21" style="rounded=0;orthogonalLoop=1;jettySize=auto;html=1;endArrow=none;endFill=0;" parent="1" source="yQDmS5JLoApgv4LuObtM-2" target="SqEPEDOolsHn98omc2Y8-17" edge="1">
          <mxGeometry relative="1" as="geometry" />
        </mxCell>
        <mxCell id="SqEPEDOolsHn98omc2Y8-23" style="rounded=0;orthogonalLoop=1;jettySize=auto;html=1;endArrow=none;endFill=0;" parent="1" source="yQDmS5JLoApgv4LuObtM-2" target="SqEPEDOolsHn98omc2Y8-16" edge="1">
          <mxGeometry relative="1" as="geometry" />
        </mxCell>
        <mxCell id="SqEPEDOolsHn98omc2Y8-24" style="rounded=0;orthogonalLoop=1;jettySize=auto;html=1;endArrow=none;endFill=0;" parent="1" source="yQDmS5JLoApgv4LuObtM-2" target="SqEPEDOolsHn98omc2Y8-20" edge="1">
          <mxGeometry relative="1" as="geometry" />
        </mxCell>
        <mxCell id="SqEPEDOolsHn98omc2Y8-25" style="rounded=0;orthogonalLoop=1;jettySize=auto;html=1;endArrow=none;endFill=0;" parent="1" source="yQDmS5JLoApgv4LuObtM-2" target="SqEPEDOolsHn98omc2Y8-18" edge="1">
          <mxGeometry relative="1" as="geometry" />
        </mxCell>
        <mxCell id="SqEPEDOolsHn98omc2Y8-26" style="rounded=0;orthogonalLoop=1;jettySize=auto;html=1;endArrow=none;endFill=0;" parent="1" source="yQDmS5JLoApgv4LuObtM-2" target="SqEPEDOolsHn98omc2Y8-19" edge="1">
          <mxGeometry relative="1" as="geometry" />
        </mxCell>
        <mxCell id="yQDmS5JLoApgv4LuObtM-2" value="Estabelecimento" style="whiteSpace=wrap;html=1;align=center;" parent="1" vertex="1">
          <mxGeometry x="570" y="250.39999999999998" width="120" height="40" as="geometry" />
        </mxCell>
        <mxCell id="yQDmS5JLoApgv4LuObtM-4" style="edgeStyle=orthogonalEdgeStyle;rounded=0;orthogonalLoop=1;jettySize=auto;html=1;exitX=1;exitY=0.5;exitDx=0;exitDy=0;endArrow=none;endFill=0;" parent="1" source="yQDmS5JLoApgv4LuObtM-3" target="yQDmS5JLoApgv4LuObtM-2" edge="1">
          <mxGeometry relative="1" as="geometry" />
        </mxCell>
        <mxCell id="yQDmS5JLoApgv4LuObtM-6" value="&lt;font style=&quot;font-size: 12px;&quot;&gt;N&lt;/font&gt;" style="edgeLabel;html=1;align=center;verticalAlign=middle;resizable=0;points=[];fontSize=12;" parent="yQDmS5JLoApgv4LuObtM-4" vertex="1" connectable="0">
          <mxGeometry x="0.6396" y="1" relative="1" as="geometry">
            <mxPoint x="-11" y="2" as="offset" />
          </mxGeometry>
        </mxCell>
        <mxCell id="yQDmS5JLoApgv4LuObtM-3" value="Gerir" style="shape=rhombus;perimeter=rhombusPerimeter;whiteSpace=wrap;html=1;align=center;" parent="1" vertex="1">
          <mxGeometry x="500" y="180" width="100" height="40" as="geometry" />
        </mxCell>
        <mxCell id="NbnM6iB9dF-K6DxLPHh_-2" style="edgeStyle=orthogonalEdgeStyle;rounded=0;orthogonalLoop=1;jettySize=auto;html=1;exitX=0.5;exitY=1;exitDx=0;exitDy=0;endArrow=none;endFill=0;entryX=0;entryY=0.5;entryDx=0;entryDy=0;" parent="1" source="NbnM6iB9dF-K6DxLPHh_-1" target="yQDmS5JLoApgv4LuObtM-3" edge="1">
          <mxGeometry relative="1" as="geometry">
            <Array as="points">
              <mxPoint x="460" y="200" />
            </Array>
          </mxGeometry>
        </mxCell>
        <mxCell id="NbnM6iB9dF-K6DxLPHh_-5" value="1" style="edgeLabel;html=1;align=center;verticalAlign=middle;resizable=0;points=[];fontSize=12;" parent="NbnM6iB9dF-K6DxLPHh_-2" vertex="1" connectable="0">
          <mxGeometry x="-0.69" relative="1" as="geometry">
            <mxPoint x="-10" as="offset" />
          </mxGeometry>
        </mxCell>
        <mxCell id="40a3CQeEdQRSA39760IF-10" style="rounded=0;orthogonalLoop=1;jettySize=auto;html=1;endArrow=none;endFill=0;" parent="1" source="NbnM6iB9dF-K6DxLPHh_-1" target="40a3CQeEdQRSA39760IF-7" edge="1">
          <mxGeometry relative="1" as="geometry" />
        </mxCell>
        <mxCell id="40a3CQeEdQRSA39760IF-11" style="rounded=0;orthogonalLoop=1;jettySize=auto;html=1;endArrow=none;endFill=0;" parent="1" source="NbnM6iB9dF-K6DxLPHh_-1" target="40a3CQeEdQRSA39760IF-9" edge="1">
          <mxGeometry relative="1" as="geometry" />
        </mxCell>
        <mxCell id="40a3CQeEdQRSA39760IF-12" style="rounded=0;orthogonalLoop=1;jettySize=auto;html=1;endArrow=none;endFill=0;" parent="1" source="NbnM6iB9dF-K6DxLPHh_-1" target="40a3CQeEdQRSA39760IF-8" edge="1">
          <mxGeometry relative="1" as="geometry" />
        </mxCell>
        <mxCell id="NbnM6iB9dF-K6DxLPHh_-1" value="Administrador" style="whiteSpace=wrap;html=1;align=center;" parent="1" vertex="1">
          <mxGeometry x="410" y="130.40000000000006" width="100" height="40" as="geometry" />
        </mxCell>
        <mxCell id="mybUD6jqEU3hyF5QfkNe-2" style="rounded=0;orthogonalLoop=1;jettySize=auto;html=1;endArrow=none;endFill=0;" parent="1" source="NbnM6iB9dF-K6DxLPHh_-7" target="mybUD6jqEU3hyF5QfkNe-1" edge="1">
          <mxGeometry relative="1" as="geometry" />
        </mxCell>
        <mxCell id="mybUD6jqEU3hyF5QfkNe-4" style="rounded=0;orthogonalLoop=1;jettySize=auto;html=1;endArrow=none;endFill=0;" parent="1" source="NbnM6iB9dF-K6DxLPHh_-7" target="mybUD6jqEU3hyF5QfkNe-3" edge="1">
          <mxGeometry relative="1" as="geometry" />
        </mxCell>
        <mxCell id="mybUD6jqEU3hyF5QfkNe-6" style="rounded=0;orthogonalLoop=1;jettySize=auto;html=1;endArrow=none;endFill=0;" parent="1" source="NbnM6iB9dF-K6DxLPHh_-7" target="mybUD6jqEU3hyF5QfkNe-5" edge="1">
          <mxGeometry relative="1" as="geometry" />
        </mxCell>
        <mxCell id="mybUD6jqEU3hyF5QfkNe-8" style="rounded=0;orthogonalLoop=1;jettySize=auto;html=1;endArrow=none;endFill=0;" parent="1" source="NbnM6iB9dF-K6DxLPHh_-7" target="mybUD6jqEU3hyF5QfkNe-7" edge="1">
          <mxGeometry relative="1" as="geometry" />
        </mxCell>
        <mxCell id="mybUD6jqEU3hyF5QfkNe-11" style="rounded=0;orthogonalLoop=1;jettySize=auto;html=1;endArrow=none;endFill=0;" parent="1" source="NbnM6iB9dF-K6DxLPHh_-7" target="mybUD6jqEU3hyF5QfkNe-9" edge="1">
          <mxGeometry relative="1" as="geometry" />
        </mxCell>
        <mxCell id="NbnM6iB9dF-K6DxLPHh_-7" value="Empresa" style="whiteSpace=wrap;html=1;align=center;" parent="1" vertex="1">
          <mxGeometry x="750" y="130.40000000000006" width="100" height="40" as="geometry" />
        </mxCell>
        <mxCell id="NbnM6iB9dF-K6DxLPHh_-9" style="edgeStyle=orthogonalEdgeStyle;rounded=0;orthogonalLoop=1;jettySize=auto;html=1;exitX=1;exitY=0.5;exitDx=0;exitDy=0;endArrow=none;endFill=0;" parent="1" source="NbnM6iB9dF-K6DxLPHh_-8" target="NbnM6iB9dF-K6DxLPHh_-7" edge="1">
          <mxGeometry relative="1" as="geometry" />
        </mxCell>
        <mxCell id="NbnM6iB9dF-K6DxLPHh_-12" value="N" style="edgeLabel;html=1;align=center;verticalAlign=middle;resizable=0;points=[];fontSize=12;" parent="NbnM6iB9dF-K6DxLPHh_-9" vertex="1" connectable="0">
          <mxGeometry x="0.5429" relative="1" as="geometry">
            <mxPoint x="3" y="-9" as="offset" />
          </mxGeometry>
        </mxCell>
        <mxCell id="NbnM6iB9dF-K6DxLPHh_-10" style="edgeStyle=orthogonalEdgeStyle;rounded=0;orthogonalLoop=1;jettySize=auto;html=1;exitX=0;exitY=0.5;exitDx=0;exitDy=0;endArrow=none;endFill=0;" parent="1" source="NbnM6iB9dF-K6DxLPHh_-8" target="NbnM6iB9dF-K6DxLPHh_-1" edge="1">
          <mxGeometry relative="1" as="geometry" />
        </mxCell>
        <mxCell id="NbnM6iB9dF-K6DxLPHh_-11" value="1" style="edgeLabel;html=1;align=center;verticalAlign=middle;resizable=0;points=[];fontSize=12;" parent="NbnM6iB9dF-K6DxLPHh_-10" vertex="1" connectable="0">
          <mxGeometry x="0.6571" y="-2" relative="1" as="geometry">
            <mxPoint y="-8" as="offset" />
          </mxGeometry>
        </mxCell>
        <mxCell id="NbnM6iB9dF-K6DxLPHh_-8" value="Gerir" style="shape=rhombus;perimeter=rhombusPerimeter;whiteSpace=wrap;html=1;align=center;" parent="1" vertex="1">
          <mxGeometry x="580" y="130.4" width="100" height="40" as="geometry" />
        </mxCell>
        <mxCell id="NbnM6iB9dF-K6DxLPHh_-13" value="" style="endArrow=none;html=1;rounded=0;edgeStyle=orthogonalEdgeStyle;exitX=0.099;exitY=-0.01;exitDx=0;exitDy=0;exitPerimeter=0;entryX=0.102;entryY=0.99;entryDx=0;entryDy=0;entryPerimeter=0;" parent="1" source="NbnM6iB9dF-K6DxLPHh_-7" target="NbnM6iB9dF-K6DxLPHh_-7" edge="1">
          <mxGeometry relative="1" as="geometry">
            <mxPoint x="730" y="230.4" as="sourcePoint" />
            <mxPoint x="890" y="230.4" as="targetPoint" />
          </mxGeometry>
        </mxCell>
        <mxCell id="NbnM6iB9dF-K6DxLPHh_-15" style="edgeStyle=orthogonalEdgeStyle;rounded=0;orthogonalLoop=1;jettySize=auto;html=1;exitX=0.5;exitY=0;exitDx=0;exitDy=0;endArrow=none;endFill=0;" parent="1" source="NbnM6iB9dF-K6DxLPHh_-14" target="NbnM6iB9dF-K6DxLPHh_-7" edge="1">
          <mxGeometry relative="1" as="geometry" />
        </mxCell>
        <mxCell id="NbnM6iB9dF-K6DxLPHh_-19" value="&lt;font style=&quot;font-size: 12px;&quot;&gt;1&lt;/font&gt;" style="edgeLabel;html=1;align=center;verticalAlign=middle;resizable=0;points=[];fontSize=12;" parent="NbnM6iB9dF-K6DxLPHh_-15" vertex="1" connectable="0">
          <mxGeometry x="0.8112" relative="1" as="geometry">
            <mxPoint x="-8" y="3" as="offset" />
          </mxGeometry>
        </mxCell>
        <mxCell id="NbnM6iB9dF-K6DxLPHh_-16" style="edgeStyle=orthogonalEdgeStyle;rounded=0;orthogonalLoop=1;jettySize=auto;html=1;exitX=0;exitY=0.5;exitDx=0;exitDy=0;endArrow=none;endFill=0;" parent="1" source="NbnM6iB9dF-K6DxLPHh_-14" target="yQDmS5JLoApgv4LuObtM-2" edge="1">
          <mxGeometry relative="1" as="geometry" />
        </mxCell>
        <mxCell id="NbnM6iB9dF-K6DxLPHh_-18" value="&lt;font style=&quot;font-size: 12px;&quot;&gt;N&lt;/font&gt;" style="edgeLabel;html=1;align=center;verticalAlign=middle;resizable=0;points=[];fontSize=12;" parent="NbnM6iB9dF-K6DxLPHh_-16" vertex="1" connectable="0">
          <mxGeometry x="0.6041" y="-1" relative="1" as="geometry">
            <mxPoint y="-9" as="offset" />
          </mxGeometry>
        </mxCell>
        <mxCell id="NbnM6iB9dF-K6DxLPHh_-14" value="Possuir" style="shape=rhombus;perimeter=rhombusPerimeter;whiteSpace=wrap;html=1;align=center;" parent="1" vertex="1">
          <mxGeometry x="750" y="250.39999999999998" width="100" height="40" as="geometry" />
        </mxCell>
        <mxCell id="NbnM6iB9dF-K6DxLPHh_-21" value="" style="endArrow=none;html=1;rounded=0;edgeStyle=orthogonalEdgeStyle;exitX=0.926;exitY=-0.013;exitDx=0;exitDy=0;exitPerimeter=0;entryX=0.926;entryY=0.993;entryDx=0;entryDy=0;entryPerimeter=0;" parent="1" source="yQDmS5JLoApgv4LuObtM-2" target="yQDmS5JLoApgv4LuObtM-2" edge="1">
          <mxGeometry relative="1" as="geometry">
            <mxPoint x="680" y="310" as="sourcePoint" />
            <mxPoint x="840" y="310" as="targetPoint" />
          </mxGeometry>
        </mxCell>
        <mxCell id="3HNFLqr0ADHasD_iGyik-1" style="edgeStyle=orthogonalEdgeStyle;rounded=0;orthogonalLoop=1;jettySize=auto;html=1;exitX=1;exitY=0.75;exitDx=0;exitDy=0;entryX=0.5;entryY=0;entryDx=0;entryDy=0;endArrow=none;endFill=0;" parent="1" source="NbnM6iB9dF-K6DxLPHh_-22" target="3HNFLqr0ADHasD_iGyik-4" edge="1">
          <mxGeometry relative="1" as="geometry">
            <mxPoint x="720" y="520" as="targetPoint" />
            <Array as="points">
              <mxPoint x="710" y="470" />
              <mxPoint x="710" y="500" />
            </Array>
          </mxGeometry>
        </mxCell>
        <mxCell id="_sjUYLzOShv_BYqPr86n-129" value="&lt;font style=&quot;font-size: 12px;&quot;&gt;1&lt;/font&gt;" style="edgeLabel;html=1;align=center;verticalAlign=middle;resizable=0;points=[];" parent="3HNFLqr0ADHasD_iGyik-1" vertex="1" connectable="0">
          <mxGeometry x="-0.76" y="1" relative="1" as="geometry">
            <mxPoint x="-2" y="-8" as="offset" />
          </mxGeometry>
        </mxCell>
        <mxCell id="mybUD6jqEU3hyF5QfkNe-13" style="rounded=0;orthogonalLoop=1;jettySize=auto;html=1;endArrow=none;endFill=0;" parent="1" source="NbnM6iB9dF-K6DxLPHh_-22" target="mybUD6jqEU3hyF5QfkNe-12" edge="1">
          <mxGeometry relative="1" as="geometry" />
        </mxCell>
        <mxCell id="mybUD6jqEU3hyF5QfkNe-15" style="rounded=0;orthogonalLoop=1;jettySize=auto;html=1;endArrow=none;endFill=0;" parent="1" source="NbnM6iB9dF-K6DxLPHh_-22" target="mybUD6jqEU3hyF5QfkNe-14" edge="1">
          <mxGeometry relative="1" as="geometry" />
        </mxCell>
        <mxCell id="mybUD6jqEU3hyF5QfkNe-17" style="rounded=0;orthogonalLoop=1;jettySize=auto;html=1;endArrow=none;endFill=0;" parent="1" source="NbnM6iB9dF-K6DxLPHh_-22" target="mybUD6jqEU3hyF5QfkNe-16" edge="1">
          <mxGeometry relative="1" as="geometry" />
        </mxCell>
        <mxCell id="NbnM6iB9dF-K6DxLPHh_-22" value="SecÃ§Ã£o" style="whiteSpace=wrap;html=1;align=center;" parent="1" vertex="1">
          <mxGeometry x="580" y="440" width="100" height="40" as="geometry" />
        </mxCell>
        <mxCell id="NbnM6iB9dF-K6DxLPHh_-24" style="edgeStyle=orthogonalEdgeStyle;rounded=0;orthogonalLoop=1;jettySize=auto;html=1;exitX=0.5;exitY=0;exitDx=0;exitDy=0;endArrow=none;endFill=0;" parent="1" source="NbnM6iB9dF-K6DxLPHh_-23" target="yQDmS5JLoApgv4LuObtM-2" edge="1">
          <mxGeometry relative="1" as="geometry" />
        </mxCell>
        <mxCell id="NbnM6iB9dF-K6DxLPHh_-26" value="1" style="edgeLabel;html=1;align=center;verticalAlign=middle;resizable=0;points=[];fontSize=12;" parent="NbnM6iB9dF-K6DxLPHh_-24" vertex="1" connectable="0">
          <mxGeometry x="0.6884" relative="1" as="geometry">
            <mxPoint x="-9" as="offset" />
          </mxGeometry>
        </mxCell>
        <mxCell id="NbnM6iB9dF-K6DxLPHh_-25" style="edgeStyle=orthogonalEdgeStyle;rounded=0;orthogonalLoop=1;jettySize=auto;html=1;exitX=0.5;exitY=1;exitDx=0;exitDy=0;endArrow=none;endFill=0;" parent="1" source="NbnM6iB9dF-K6DxLPHh_-23" target="NbnM6iB9dF-K6DxLPHh_-22" edge="1">
          <mxGeometry relative="1" as="geometry" />
        </mxCell>
        <mxCell id="NbnM6iB9dF-K6DxLPHh_-27" value="N" style="edgeLabel;html=1;align=center;verticalAlign=middle;resizable=0;points=[];fontSize=12;" parent="NbnM6iB9dF-K6DxLPHh_-25" vertex="1" connectable="0">
          <mxGeometry x="0.576" y="-1" relative="1" as="geometry">
            <mxPoint x="-9" y="-1" as="offset" />
          </mxGeometry>
        </mxCell>
        <mxCell id="-zqfhYoR-5PA2XMImROz-2" style="edgeStyle=orthogonalEdgeStyle;rounded=0;orthogonalLoop=1;jettySize=auto;html=1;exitX=0;exitY=0.5;exitDx=0;exitDy=0;endArrow=none;endFill=0;" parent="1" source="NbnM6iB9dF-K6DxLPHh_-23" target="-zqfhYoR-5PA2XMImROz-1" edge="1">
          <mxGeometry relative="1" as="geometry" />
        </mxCell>
        <mxCell id="NbnM6iB9dF-K6DxLPHh_-23" value="Possuir" style="shape=rhombus;perimeter=rhombusPerimeter;whiteSpace=wrap;html=1;align=center;" parent="1" vertex="1">
          <mxGeometry x="580" y="350" width="100" height="40" as="geometry" />
        </mxCell>
        <mxCell id="mybUD6jqEU3hyF5QfkNe-19" style="rounded=0;orthogonalLoop=1;jettySize=auto;html=1;endArrow=none;endFill=0;" parent="1" source="NbnM6iB9dF-K6DxLPHh_-47" target="mybUD6jqEU3hyF5QfkNe-18" edge="1">
          <mxGeometry relative="1" as="geometry" />
        </mxCell>
        <mxCell id="mybUD6jqEU3hyF5QfkNe-21" style="rounded=0;orthogonalLoop=1;jettySize=auto;html=1;endArrow=none;endFill=0;" parent="1" source="NbnM6iB9dF-K6DxLPHh_-47" target="mybUD6jqEU3hyF5QfkNe-20" edge="1">
          <mxGeometry relative="1" as="geometry" />
        </mxCell>
        <mxCell id="NbnM6iB9dF-K6DxLPHh_-47" value="Senhas" style="whiteSpace=wrap;html=1;align=center;" parent="1" vertex="1">
          <mxGeometry x="410" y="530" width="100" height="40" as="geometry" />
        </mxCell>
        <mxCell id="NbnM6iB9dF-K6DxLPHh_-49" style="edgeStyle=orthogonalEdgeStyle;rounded=0;orthogonalLoop=1;jettySize=auto;html=1;endArrow=none;endFill=0;exitX=0.5;exitY=1;exitDx=0;exitDy=0;" parent="1" source="pV0ca6-qCDErJuuyu0tn-1" target="NbnM6iB9dF-K6DxLPHh_-47" edge="1">
          <mxGeometry relative="1" as="geometry">
            <mxPoint x="300" y="360" as="sourcePoint" />
          </mxGeometry>
        </mxCell>
        <mxCell id="3HNFLqr0ADHasD_iGyik-7" style="edgeStyle=orthogonalEdgeStyle;rounded=0;orthogonalLoop=1;jettySize=auto;html=1;exitX=1;exitY=0.5;exitDx=0;exitDy=0;endArrow=none;endFill=0;" parent="1" source="kPfMmuQyJ7TQgesJQ0iN-1" target="NbnM6iB9dF-K6DxLPHh_-1" edge="1">
          <mxGeometry relative="1" as="geometry" />
        </mxCell>
        <mxCell id="3HNFLqr0ADHasD_iGyik-11" value="1" style="edgeLabel;html=1;align=center;verticalAlign=middle;resizable=0;points=[];fontSize=12;" parent="3HNFLqr0ADHasD_iGyik-7" vertex="1" connectable="0">
          <mxGeometry x="0.6039" relative="1" as="geometry">
            <mxPoint x="4" y="-10" as="offset" />
          </mxGeometry>
        </mxCell>
        <mxCell id="kPfMmuQyJ7TQgesJQ0iN-1" value="Gerir" style="shape=rhombus;perimeter=rhombusPerimeter;whiteSpace=wrap;html=1;align=center;" parent="1" vertex="1">
          <mxGeometry x="240" y="130.4" width="100" height="40" as="geometry" />
        </mxCell>
        <mxCell id="kPfMmuQyJ7TQgesJQ0iN-2" style="edgeStyle=orthogonalEdgeStyle;rounded=0;orthogonalLoop=1;jettySize=auto;html=1;exitX=0.5;exitY=1;exitDx=0;exitDy=0;endArrow=none;endFill=0;" parent="1" source="kPfMmuQyJ7TQgesJQ0iN-1" target="yQDmS5JLoApgv4LuObtM-1" edge="1">
          <mxGeometry relative="1" as="geometry">
            <mxPoint x="420" y="280" as="sourcePoint" />
            <mxPoint x="350" y="280" as="targetPoint" />
          </mxGeometry>
        </mxCell>
        <mxCell id="kPfMmuQyJ7TQgesJQ0iN-3" value="&lt;font style=&quot;font-size: 12px;&quot;&gt;N&lt;/font&gt;" style="edgeLabel;html=1;align=center;verticalAlign=middle;resizable=0;points=[];fontSize=12;" parent="kPfMmuQyJ7TQgesJQ0iN-2" vertex="1" connectable="0">
          <mxGeometry x="0.5229" y="-1" relative="1" as="geometry">
            <mxPoint x="-9" y="9" as="offset" />
          </mxGeometry>
        </mxCell>
        <mxCell id="pV0ca6-qCDErJuuyu0tn-3" style="edgeStyle=orthogonalEdgeStyle;rounded=0;orthogonalLoop=1;jettySize=auto;html=1;exitX=1;exitY=0.5;exitDx=0;exitDy=0;endArrow=none;endFill=0;" parent="1" source="pV0ca6-qCDErJuuyu0tn-1" target="NbnM6iB9dF-K6DxLPHh_-22" edge="1">
          <mxGeometry relative="1" as="geometry" />
        </mxCell>
        <mxCell id="pV0ca6-qCDErJuuyu0tn-5" value="N" style="edgeLabel;html=1;align=center;verticalAlign=middle;resizable=0;points=[];fontSize=12;" parent="pV0ca6-qCDErJuuyu0tn-3" vertex="1" connectable="0">
          <mxGeometry x="0.66" relative="1" as="geometry">
            <mxPoint x="2" y="-10" as="offset" />
          </mxGeometry>
        </mxCell>
        <mxCell id="pV0ca6-qCDErJuuyu0tn-4" style="edgeStyle=orthogonalEdgeStyle;rounded=0;orthogonalLoop=1;jettySize=auto;html=1;exitX=0;exitY=0.5;exitDx=0;exitDy=0;endArrow=none;endFill=0;" parent="1" source="pV0ca6-qCDErJuuyu0tn-1" target="pV0ca6-qCDErJuuyu0tn-2" edge="1">
          <mxGeometry relative="1" as="geometry" />
        </mxCell>
        <mxCell id="pV0ca6-qCDErJuuyu0tn-6" value="1" style="edgeLabel;html=1;align=center;verticalAlign=middle;resizable=0;points=[];fontSize=12;" parent="pV0ca6-qCDErJuuyu0tn-4" vertex="1" connectable="0">
          <mxGeometry x="0.5867" y="-1" relative="1" as="geometry">
            <mxPoint x="-5" y="-9" as="offset" />
          </mxGeometry>
        </mxCell>
        <mxCell id="pV0ca6-qCDErJuuyu0tn-1" value="Pedir Senha" style="shape=rhombus;perimeter=rhombusPerimeter;whiteSpace=wrap;html=1;align=center;" parent="1" vertex="1">
          <mxGeometry x="410" y="440" width="100" height="40" as="geometry" />
        </mxCell>
        <mxCell id="mybUD6jqEU3hyF5QfkNe-26" style="rounded=0;orthogonalLoop=1;jettySize=auto;html=1;endArrow=none;endFill=0;" parent="1" source="pV0ca6-qCDErJuuyu0tn-2" target="mybUD6jqEU3hyF5QfkNe-25" edge="1">
          <mxGeometry relative="1" as="geometry" />
        </mxCell>
        <mxCell id="pV0ca6-qCDErJuuyu0tn-2" value="Utilizador" style="whiteSpace=wrap;html=1;align=center;" parent="1" vertex="1">
          <mxGeometry x="240" y="440" width="100" height="40" as="geometry" />
        </mxCell>
        <mxCell id="mybUD6jqEU3hyF5QfkNe-28" style="rounded=0;orthogonalLoop=1;jettySize=auto;html=1;endArrow=none;endFill=0;" parent="1" source="pV0ca6-qCDErJuuyu0tn-14" target="mybUD6jqEU3hyF5QfkNe-27" edge="1">
          <mxGeometry relative="1" as="geometry" />
        </mxCell>
        <mxCell id="mybUD6jqEU3hyF5QfkNe-34" style="rounded=0;orthogonalLoop=1;jettySize=auto;html=1;endArrow=none;endFill=0;" parent="1" source="pV0ca6-qCDErJuuyu0tn-14" target="mybUD6jqEU3hyF5QfkNe-33" edge="1">
          <mxGeometry relative="1" as="geometry" />
        </mxCell>
        <mxCell id="SqEPEDOolsHn98omc2Y8-2" style="rounded=0;orthogonalLoop=1;jettySize=auto;html=1;endArrow=none;endFill=0;" parent="1" source="pV0ca6-qCDErJuuyu0tn-14" target="SqEPEDOolsHn98omc2Y8-1" edge="1">
          <mxGeometry relative="1" as="geometry" />
        </mxCell>
        <mxCell id="SqEPEDOolsHn98omc2Y8-4" style="rounded=0;orthogonalLoop=1;jettySize=auto;html=1;endArrow=none;endFill=0;" parent="1" source="pV0ca6-qCDErJuuyu0tn-14" target="SqEPEDOolsHn98omc2Y8-3" edge="1">
          <mxGeometry relative="1" as="geometry" />
        </mxCell>
        <mxCell id="SqEPEDOolsHn98omc2Y8-6" style="rounded=0;orthogonalLoop=1;jettySize=auto;html=1;endArrow=none;endFill=0;" parent="1" source="pV0ca6-qCDErJuuyu0tn-14" target="SqEPEDOolsHn98omc2Y8-5" edge="1">
          <mxGeometry relative="1" as="geometry" />
        </mxCell>
        <mxCell id="-zqfhYoR-5PA2XMImROz-10" style="rounded=0;orthogonalLoop=1;jettySize=auto;html=1;endArrow=none;endFill=0;" parent="1" source="pV0ca6-qCDErJuuyu0tn-14" target="-zqfhYoR-5PA2XMImROz-9" edge="1">
          <mxGeometry relative="1" as="geometry" />
        </mxCell>
        <mxCell id="pV0ca6-qCDErJuuyu0tn-14" value="AnÃ¡lise de Dados" style="whiteSpace=wrap;html=1;align=center;" parent="1" vertex="1">
          <mxGeometry x="570" y="620" width="120" height="40" as="geometry" />
        </mxCell>
        <mxCell id="pV0ca6-qCDErJuuyu0tn-16" style="edgeStyle=orthogonalEdgeStyle;rounded=0;orthogonalLoop=1;jettySize=auto;html=1;exitX=0.5;exitY=1;exitDx=0;exitDy=0;endArrow=none;endFill=0;" parent="1" source="pV0ca6-qCDErJuuyu0tn-15" target="pV0ca6-qCDErJuuyu0tn-14" edge="1">
          <mxGeometry relative="1" as="geometry" />
        </mxCell>
        <mxCell id="-zqfhYoR-5PA2XMImROz-5" value="N" style="edgeLabel;html=1;align=center;verticalAlign=middle;resizable=0;points=[];fontSize=12;" parent="pV0ca6-qCDErJuuyu0tn-16" vertex="1" connectable="0">
          <mxGeometry x="0.6933" y="-1" relative="1" as="geometry">
            <mxPoint x="-9" y="-2" as="offset" />
          </mxGeometry>
        </mxCell>
        <mxCell id="pV0ca6-qCDErJuuyu0tn-17" style="edgeStyle=orthogonalEdgeStyle;rounded=0;orthogonalLoop=1;jettySize=auto;html=1;exitX=0.5;exitY=0;exitDx=0;exitDy=0;endArrow=none;endFill=0;" parent="1" source="pV0ca6-qCDErJuuyu0tn-15" target="NbnM6iB9dF-K6DxLPHh_-22" edge="1">
          <mxGeometry relative="1" as="geometry" />
        </mxCell>
        <mxCell id="-zqfhYoR-5PA2XMImROz-7" value="1" style="edgeLabel;html=1;align=center;verticalAlign=middle;resizable=0;points=[];fontSize=12;" parent="pV0ca6-qCDErJuuyu0tn-17" vertex="1" connectable="0">
          <mxGeometry x="0.7162" relative="1" as="geometry">
            <mxPoint x="-10" y="3" as="offset" />
          </mxGeometry>
        </mxCell>
        <mxCell id="pV0ca6-qCDErJuuyu0tn-15" value="Possuir" style="shape=rhombus;perimeter=rhombusPerimeter;whiteSpace=wrap;html=1;align=center;" parent="1" vertex="1">
          <mxGeometry x="580" y="530" width="100" height="40" as="geometry" />
        </mxCell>
        <mxCell id="3HNFLqr0ADHasD_iGyik-5" style="edgeStyle=orthogonalEdgeStyle;rounded=0;orthogonalLoop=1;jettySize=auto;html=1;exitX=0.5;exitY=1;exitDx=0;exitDy=0;endArrow=none;endFill=0;" parent="1" source="3HNFLqr0ADHasD_iGyik-4" target="NbnM6iB9dF-K6DxLPHh_-22" edge="1">
          <mxGeometry relative="1" as="geometry">
            <Array as="points">
              <mxPoint x="710" y="520" />
              <mxPoint x="660" y="520" />
            </Array>
            <mxPoint x="710" y="506" as="sourcePoint" />
            <mxPoint x="660" y="473" as="targetPoint" />
          </mxGeometry>
        </mxCell>
        <mxCell id="3HNFLqr0ADHasD_iGyik-6" value="N" style="edgeLabel;html=1;align=center;verticalAlign=middle;resizable=0;points=[];fontSize=12;" parent="3HNFLqr0ADHasD_iGyik-5" vertex="1" connectable="0">
          <mxGeometry x="0.8234" y="1" relative="1" as="geometry">
            <mxPoint x="-6" as="offset" />
          </mxGeometry>
        </mxCell>
        <mxCell id="_sjUYLzOShv_BYqPr86n-138" style="edgeStyle=orthogonalEdgeStyle;rounded=0;orthogonalLoop=1;jettySize=auto;html=1;exitX=1;exitY=0.5;exitDx=0;exitDy=0;endArrow=none;endFill=0;" parent="1" source="3HNFLqr0ADHasD_iGyik-4" edge="1">
          <mxGeometry relative="1" as="geometry">
            <mxPoint x="780" y="494.66666666666674" as="targetPoint" />
          </mxGeometry>
        </mxCell>
        <mxCell id="3HNFLqr0ADHasD_iGyik-4" value="Agrupar" style="shape=rhombus;perimeter=rhombusPerimeter;whiteSpace=wrap;html=1;align=center;" parent="1" vertex="1">
          <mxGeometry x="675" y="476" width="70" height="37" as="geometry" />
        </mxCell>
        <mxCell id="3HNFLqr0ADHasD_iGyik-9" style="edgeStyle=orthogonalEdgeStyle;rounded=0;orthogonalLoop=1;jettySize=auto;html=1;exitX=1;exitY=0.5;exitDx=0;exitDy=0;endArrow=none;endFill=0;" parent="1" source="3HNFLqr0ADHasD_iGyik-8" target="yQDmS5JLoApgv4LuObtM-2" edge="1">
          <mxGeometry relative="1" as="geometry" />
        </mxCell>
        <mxCell id="3HNFLqr0ADHasD_iGyik-12" value="N" style="edgeLabel;html=1;align=center;verticalAlign=middle;resizable=0;points=[];fontSize=12;" parent="3HNFLqr0ADHasD_iGyik-9" vertex="1" connectable="0">
          <mxGeometry x="0.5609" relative="1" as="geometry">
            <mxPoint y="-10" as="offset" />
          </mxGeometry>
        </mxCell>
        <mxCell id="3HNFLqr0ADHasD_iGyik-10" style="edgeStyle=orthogonalEdgeStyle;rounded=0;orthogonalLoop=1;jettySize=auto;html=1;exitX=0;exitY=0.5;exitDx=0;exitDy=0;endArrow=none;endFill=0;" parent="1" source="3HNFLqr0ADHasD_iGyik-8" target="yQDmS5JLoApgv4LuObtM-1" edge="1">
          <mxGeometry relative="1" as="geometry" />
        </mxCell>
        <mxCell id="3HNFLqr0ADHasD_iGyik-13" value="N" style="edgeLabel;html=1;align=center;verticalAlign=middle;resizable=0;points=[];fontSize=12;" parent="3HNFLqr0ADHasD_iGyik-10" vertex="1" connectable="0">
          <mxGeometry x="0.6374" y="-1" relative="1" as="geometry">
            <mxPoint y="-9" as="offset" />
          </mxGeometry>
        </mxCell>
        <mxCell id="3HNFLqr0ADHasD_iGyik-8" value="Gerir" style="shape=rhombus;perimeter=rhombusPerimeter;whiteSpace=wrap;html=1;align=center;" parent="1" vertex="1">
          <mxGeometry x="410" y="250.39999999999998" width="100" height="40" as="geometry" />
        </mxCell>
        <mxCell id="3HNFLqr0ADHasD_iGyik-15" value="" style="endArrow=none;html=1;rounded=0;edgeStyle=orthogonalEdgeStyle;entryX=1;entryY=0.25;entryDx=0;entryDy=0;exitX=0;exitY=0.25;exitDx=0;exitDy=0;" parent="1" source="yQDmS5JLoApgv4LuObtM-2" target="yQDmS5JLoApgv4LuObtM-2" edge="1">
          <mxGeometry relative="1" as="geometry">
            <mxPoint x="360" y="230" as="sourcePoint" />
            <mxPoint x="520" y="230" as="targetPoint" />
          </mxGeometry>
        </mxCell>
        <mxCell id="3HNFLqr0ADHasD_iGyik-16" value="" style="endArrow=none;html=1;rounded=0;edgeStyle=orthogonalEdgeStyle;exitX=0;exitY=0.25;exitDx=0;exitDy=0;entryX=1;entryY=0.25;entryDx=0;entryDy=0;" parent="1" source="yQDmS5JLoApgv4LuObtM-1" target="yQDmS5JLoApgv4LuObtM-1" edge="1">
          <mxGeometry relative="1" as="geometry">
            <mxPoint x="260" y="330" as="sourcePoint" />
            <mxPoint x="420" y="330" as="targetPoint" />
          </mxGeometry>
        </mxCell>
        <mxCell id="3HNFLqr0ADHasD_iGyik-17" value="Uma secÃ§Ã£o pode funcionar como agrupador, de forma a que agrupe vÃ¡rias subsecÃ§Ãµes" style="shape=module;align=left;spacingLeft=20;align=center;verticalAlign=top;whiteSpace=wrap;html=1;jettyWidth=19;jettyHeight=5;" parent="1" vertex="1">
          <mxGeometry x="750" y="530" width="170" height="70" as="geometry" />
        </mxCell>
        <mxCell id="3HNFLqr0ADHasD_iGyik-18" value="" style="curved=1;endArrow=classic;html=1;rounded=0;edgeStyle=orthogonalEdgeStyle;" parent="1" edge="1">
          <mxGeometry width="50" height="50" relative="1" as="geometry">
            <mxPoint x="755" y="578" as="sourcePoint" />
            <mxPoint x="720" y="528" as="targetPoint" />
            <Array as="points">
              <mxPoint x="720" y="578" />
            </Array>
          </mxGeometry>
        </mxCell>
        <mxCell id="40a3CQeEdQRSA39760IF-1" value="Nome" style="ellipse;whiteSpace=wrap;html=1;align=center;" parent="1" vertex="1">
          <mxGeometry x="240" y="310" width="100" height="40" as="geometry" />
        </mxCell>
        <mxCell id="40a3CQeEdQRSA39760IF-3" value="Email" style="ellipse;whiteSpace=wrap;html=1;align=center;" parent="1" vertex="1">
          <mxGeometry x="140" y="290.4" width="100" height="40" as="geometry" />
        </mxCell>
        <mxCell id="40a3CQeEdQRSA39760IF-6" style="rounded=0;orthogonalLoop=1;jettySize=auto;html=1;endArrow=none;endFill=0;" parent="1" source="40a3CQeEdQRSA39760IF-5" target="yQDmS5JLoApgv4LuObtM-1" edge="1">
          <mxGeometry relative="1" as="geometry" />
        </mxCell>
        <mxCell id="40a3CQeEdQRSA39760IF-5" value="Password" style="ellipse;whiteSpace=wrap;html=1;align=center;" parent="1" vertex="1">
          <mxGeometry x="160" y="200" width="100" height="40" as="geometry" />
        </mxCell>
        <mxCell id="40a3CQeEdQRSA39760IF-7" value="Nome" style="ellipse;whiteSpace=wrap;html=1;align=center;" parent="1" vertex="1">
          <mxGeometry x="300" y="70" width="100" height="40" as="geometry" />
        </mxCell>
        <mxCell id="40a3CQeEdQRSA39760IF-8" value="Email" style="ellipse;whiteSpace=wrap;html=1;align=center;" parent="1" vertex="1">
          <mxGeometry x="410" y="70" width="100" height="40" as="geometry" />
        </mxCell>
        <mxCell id="40a3CQeEdQRSA39760IF-9" value="Password" style="ellipse;whiteSpace=wrap;html=1;align=center;" parent="1" vertex="1">
          <mxGeometry x="520" y="70" width="100" height="40" as="geometry" />
        </mxCell>
        <mxCell id="40a3CQeEdQRSA39760IF-14" value="id_loja" style="ellipse;whiteSpace=wrap;html=1;align=center;" parent="1" vertex="1">
          <mxGeometry x="500" y="300" width="100" height="40" as="geometry" />
        </mxCell>
        <mxCell id="40a3CQeEdQRSA39760IF-16" value="Nome" style="ellipse;whiteSpace=wrap;html=1;align=center;" parent="1" vertex="1">
          <mxGeometry x="690" y="307" width="100" height="40" as="geometry" />
        </mxCell>
        <mxCell id="40a3CQeEdQRSA39760IF-17" style="rounded=0;orthogonalLoop=1;jettySize=auto;html=1;endArrow=none;endFill=0;" parent="1" source="yQDmS5JLoApgv4LuObtM-2" target="40a3CQeEdQRSA39760IF-16" edge="1">
          <mxGeometry relative="1" as="geometry">
            <mxPoint x="630" y="260" as="sourcePoint" />
            <mxPoint x="568" y="323" as="targetPoint" />
          </mxGeometry>
        </mxCell>
        <mxCell id="mybUD6jqEU3hyF5QfkNe-1" value="Nome" style="ellipse;whiteSpace=wrap;html=1;align=center;" parent="1" vertex="1">
          <mxGeometry x="680" y="70" width="100" height="40" as="geometry" />
        </mxCell>
        <mxCell id="mybUD6jqEU3hyF5QfkNe-3" value="Slogan" style="ellipse;whiteSpace=wrap;html=1;align=center;" parent="1" vertex="1">
          <mxGeometry x="800" y="70" width="100" height="40" as="geometry" />
        </mxCell>
        <mxCell id="mybUD6jqEU3hyF5QfkNe-5" value="NIF" style="ellipse;whiteSpace=wrap;html=1;align=center;" parent="1" vertex="1">
          <mxGeometry x="880" y="120" width="100" height="40" as="geometry" />
        </mxCell>
        <mxCell id="mybUD6jqEU3hyF5QfkNe-7" value="Area Empresarial" style="ellipse;whiteSpace=wrap;html=1;align=center;" parent="1" vertex="1">
          <mxGeometry x="850" y="180" width="110" height="40" as="geometry" />
        </mxCell>
        <mxCell id="mybUD6jqEU3hyF5QfkNe-9" value="Morada" style="ellipse;whiteSpace=wrap;html=1;align=center;" parent="1" vertex="1">
          <mxGeometry x="665" y="190" width="100" height="40" as="geometry" />
        </mxCell>
        <mxCell id="mybUD6jqEU3hyF5QfkNe-12" value="Nome" style="ellipse;whiteSpace=wrap;html=1;align=center;" parent="1" vertex="1">
          <mxGeometry x="690" y="410" width="100" height="40" as="geometry" />
        </mxCell>
        <mxCell id="mybUD6jqEU3hyF5QfkNe-14" value="letra indicativa" style="ellipse;whiteSpace=wrap;html=1;align=center;" parent="1" vertex="1">
          <mxGeometry x="515" y="390" width="100" height="40" as="geometry" />
        </mxCell>
        <mxCell id="mybUD6jqEU3hyF5QfkNe-16" value="NFC" style="ellipse;whiteSpace=wrap;html=1;align=center;" parent="1" vertex="1">
          <mxGeometry x="500" y="490" width="100" height="40" as="geometry" />
        </mxCell>
        <mxCell id="mybUD6jqEU3hyF5QfkNe-18" value="Numero" style="ellipse;whiteSpace=wrap;html=1;align=center;" parent="1" vertex="1">
          <mxGeometry x="355" y="600" width="100" height="40" as="geometry" />
        </mxCell>
        <mxCell id="mybUD6jqEU3hyF5QfkNe-20" value="Data e Hora" style="ellipse;whiteSpace=wrap;html=1;align=center;" parent="1" vertex="1">
          <mxGeometry x="460" y="600" width="100" height="40" as="geometry" />
        </mxCell>
        <mxCell id="mybUD6jqEU3hyF5QfkNe-23" style="rounded=0;orthogonalLoop=1;jettySize=auto;html=1;endArrow=none;endFill=0;" parent="1" source="mybUD6jqEU3hyF5QfkNe-22" target="pV0ca6-qCDErJuuyu0tn-2" edge="1">
          <mxGeometry relative="1" as="geometry" />
        </mxCell>
        <mxCell id="mybUD6jqEU3hyF5QfkNe-22" value="Device_ID" style="ellipse;whiteSpace=wrap;html=1;align=center;" parent="1" vertex="1">
          <mxGeometry x="170" y="510" width="100" height="40" as="geometry" />
        </mxCell>
        <mxCell id="mybUD6jqEU3hyF5QfkNe-25" value="App_Session" style="ellipse;whiteSpace=wrap;html=1;align=center;" parent="1" vertex="1">
          <mxGeometry x="300" y="510" width="100" height="40" as="geometry" />
        </mxCell>
        <mxCell id="mybUD6jqEU3hyF5QfkNe-27" value="Periodo Mais Movimento" style="ellipse;whiteSpace=wrap;html=1;align=center;" parent="1" vertex="1">
          <mxGeometry x="665" y="730" width="110" height="50" as="geometry" />
        </mxCell>
        <mxCell id="mybUD6jqEU3hyF5QfkNe-33" value="Dia da Semana Mais Movimentado" style="ellipse;whiteSpace=wrap;html=1;align=center;" parent="1" vertex="1">
          <mxGeometry x="535" y="750" width="125" height="50" as="geometry" />
        </mxCell>
        <mxCell id="SqEPEDOolsHn98omc2Y8-1" value="Tempo de Espera MÃ©dio DiÃ¡rio" style="ellipse;whiteSpace=wrap;html=1;align=center;" parent="1" vertex="1">
          <mxGeometry x="451" y="704" width="125" height="50" as="geometry" />
        </mxCell>
        <mxCell id="SqEPEDOolsHn98omc2Y8-3" value="EficiÃªncia os Funcionario" style="ellipse;whiteSpace=wrap;html=1;align=center;" parent="1" vertex="1">
          <mxGeometry x="725" y="615" width="125" height="50" as="geometry" />
        </mxCell>
        <mxCell id="SqEPEDOolsHn98omc2Y8-5" value="EficiÃªncia dos Funcionario" style="ellipse;whiteSpace=wrap;html=1;align=center;" parent="1" vertex="1">
          <mxGeometry x="700" y="670" width="125" height="50" as="geometry" />
        </mxCell>
        <mxCell id="SqEPEDOolsHn98omc2Y8-16" value="Horario de Encerramento" style="ellipse;whiteSpace=wrap;html=1;align=center;" parent="1" vertex="1">
          <mxGeometry x="810" y="310" width="100" height="40" as="geometry" />
        </mxCell>
        <mxCell id="SqEPEDOolsHn98omc2Y8-17" value="Horario de Abertura" style="ellipse;whiteSpace=wrap;html=1;align=center;" parent="1" vertex="1">
          <mxGeometry x="690" y="360" width="100" height="40" as="geometry" />
        </mxCell>
        <mxCell id="SqEPEDOolsHn98omc2Y8-18" value="AgendarSenhas" style="ellipse;whiteSpace=wrap;html=1;align=center;" parent="1" vertex="1">
          <mxGeometry x="940" y="310" width="100" height="40" as="geometry" />
        </mxCell>
        <mxCell id="SqEPEDOolsHn98omc2Y8-19" value="RetirarSenhasApp" style="ellipse;whiteSpace=wrap;html=1;align=center;" parent="1" vertex="1">
          <mxGeometry x="935" y="365" width="110" height="40" as="geometry" />
        </mxCell>
        <mxCell id="SqEPEDOolsHn98omc2Y8-20" value="RetirarSenhasLoja" style="ellipse;whiteSpace=wrap;html=1;align=center;" parent="1" vertex="1">
          <mxGeometry x="810" y="360" width="110" height="40" as="geometry" />
        </mxCell>
        <mxCell id="SqEPEDOolsHn98omc2Y8-28" style="edgeStyle=orthogonalEdgeStyle;rounded=0;orthogonalLoop=1;jettySize=auto;html=1;entryX=0.5;entryY=0;entryDx=0;entryDy=0;endArrow=none;endFill=0;" parent="1" source="SqEPEDOolsHn98omc2Y8-27" target="3HNFLqr0ADHasD_iGyik-8" edge="1">
          <mxGeometry relative="1" as="geometry">
            <Array as="points">
              <mxPoint x="380" y="240" />
              <mxPoint x="460" y="240" />
            </Array>
          </mxGeometry>
        </mxCell>
        <mxCell id="SqEPEDOolsHn98omc2Y8-27" value="Gestor/Estabelecimento" style="whiteSpace=wrap;html=1;align=center;" parent="1" vertex="1">
          <mxGeometry x="300" y="190" width="140" height="40" as="geometry" />
        </mxCell>
        <mxCell id="-zqfhYoR-5PA2XMImROz-1" value="SecÃ§Ãµes/Estabelecimento" style="whiteSpace=wrap;html=1;align=center;" parent="1" vertex="1">
          <mxGeometry x="365" y="350" width="150" height="40" as="geometry" />
        </mxCell>
        <mxCell id="-zqfhYoR-5PA2XMImROz-6" value="" style="endArrow=none;html=1;rounded=0;edgeStyle=orthogonalEdgeStyle;entryX=1;entryY=0.25;entryDx=0;entryDy=0;exitX=0;exitY=0.25;exitDx=0;exitDy=0;" parent="1" source="pV0ca6-qCDErJuuyu0tn-14" target="pV0ca6-qCDErJuuyu0tn-14" edge="1">
          <mxGeometry relative="1" as="geometry">
            <mxPoint x="370" y="660" as="sourcePoint" />
            <mxPoint x="530" y="660" as="targetPoint" />
          </mxGeometry>
        </mxCell>
        <mxCell id="-zqfhYoR-5PA2XMImROz-9" value="ID_analise" style="ellipse;whiteSpace=wrap;html=1;align=center;" parent="1" vertex="1">
          <mxGeometry x="410" y="650" width="125" height="50" as="geometry" />
        </mxCell>
        <mxCell id="cpoPCtaIIrlfFlMyv_76-1" value="" style="endArrow=none;html=1;rounded=0;edgeStyle=orthogonalEdgeStyle;exitX=0;exitY=0.25;exitDx=0;exitDy=0;entryX=1;entryY=0.25;entryDx=0;entryDy=0;" parent="1" source="NbnM6iB9dF-K6DxLPHh_-22" target="NbnM6iB9dF-K6DxLPHh_-22" edge="1">
          <mxGeometry relative="1" as="geometry">
            <mxPoint x="820" y="480" as="sourcePoint" />
            <mxPoint x="980" y="480" as="targetPoint" />
          </mxGeometry>
        </mxCell>
        <mxCell id="_sjUYLzOShv_BYqPr86n-139" value="SecÃ§Ã£o/SubSecÃ§Ã£o" style="whiteSpace=wrap;html=1;align=center;" parent="1" vertex="1">
          <mxGeometry x="775" y="474.5" width="115" height="40" as="geometry" />
        </mxCell>
        <mxCell id="fNggspTmI-7kFoSFH9SS-1" value="Gestor" style="whiteSpace=wrap;html=1;align=center;" vertex="1" parent="1">
          <mxGeometry x="380" y="890.4000000000001" width="100" height="40" as="geometry" />
        </mxCell>
        <mxCell id="fNggspTmI-7kFoSFH9SS-2" value="Estabelecimento" style="whiteSpace=wrap;html=1;align=center;" vertex="1" parent="1">
          <mxGeometry x="575" y="1020.4" width="120" height="40" as="geometry" />
        </mxCell>
        <mxCell id="fNggspTmI-7kFoSFH9SS-3" style="edgeStyle=orthogonalEdgeStyle;rounded=0;orthogonalLoop=1;jettySize=auto;html=1;endArrow=none;endFill=0;" edge="1" parent="1" source="fNggspTmI-7kFoSFH9SS-6" target="fNggspTmI-7kFoSFH9SS-2">
          <mxGeometry relative="1" as="geometry">
            <mxPoint x="605" y="970" as="sourcePoint" />
          </mxGeometry>
        </mxCell>
        <mxCell id="fNggspTmI-7kFoSFH9SS-4" value="&lt;font style=&quot;font-size: 12px;&quot;&gt;N&lt;/font&gt;" style="edgeLabel;html=1;align=center;verticalAlign=middle;resizable=0;points=[];fontSize=12;" vertex="1" connectable="0" parent="fNggspTmI-7kFoSFH9SS-3">
          <mxGeometry x="0.6396" y="1" relative="1" as="geometry">
            <mxPoint x="-11" y="13" as="offset" />
          </mxGeometry>
        </mxCell>
        <mxCell id="fNggspTmI-7kFoSFH9SS-5" value="1" style="edgeLabel;html=1;align=center;verticalAlign=middle;resizable=0;points=[];fontSize=12;" vertex="1" connectable="0" parent="fNggspTmI-7kFoSFH9SS-3">
          <mxGeometry x="-0.8285" relative="1" as="geometry">
            <mxPoint x="-12" as="offset" />
          </mxGeometry>
        </mxCell>
        <mxCell id="fNggspTmI-7kFoSFH9SS-6" value="Administrador" style="whiteSpace=wrap;html=1;align=center;" vertex="1" parent="1">
          <mxGeometry x="547.5" y="890.4000000000001" width="100" height="40" as="geometry" />
        </mxCell>
        <mxCell id="fNggspTmI-7kFoSFH9SS-7" value="Empresa" style="whiteSpace=wrap;html=1;align=center;" vertex="1" parent="1">
          <mxGeometry x="750" y="890.4000000000001" width="100" height="40" as="geometry" />
        </mxCell>
        <mxCell id="fNggspTmI-7kFoSFH9SS-8" style="edgeStyle=orthogonalEdgeStyle;rounded=0;orthogonalLoop=1;jettySize=auto;html=1;endArrow=none;endFill=0;" edge="1" parent="1" source="fNggspTmI-7kFoSFH9SS-6" target="fNggspTmI-7kFoSFH9SS-7">
          <mxGeometry relative="1" as="geometry">
            <mxPoint x="685" y="920.4000000000001" as="sourcePoint" />
          </mxGeometry>
        </mxCell>
        <mxCell id="fNggspTmI-7kFoSFH9SS-9" value="N" style="edgeLabel;html=1;align=center;verticalAlign=middle;resizable=0;points=[];fontSize=12;" vertex="1" connectable="0" parent="fNggspTmI-7kFoSFH9SS-8">
          <mxGeometry x="0.5429" relative="1" as="geometry">
            <mxPoint x="3" y="-9" as="offset" />
          </mxGeometry>
        </mxCell>
        <mxCell id="fNggspTmI-7kFoSFH9SS-10" value="1" style="edgeLabel;html=1;align=center;verticalAlign=middle;resizable=0;points=[];fontSize=12;" vertex="1" connectable="0" parent="fNggspTmI-7kFoSFH9SS-8">
          <mxGeometry x="-0.7914" y="2" relative="1" as="geometry">
            <mxPoint y="-8" as="offset" />
          </mxGeometry>
        </mxCell>
        <mxCell id="fNggspTmI-7kFoSFH9SS-11" value="" style="endArrow=none;html=1;rounded=0;edgeStyle=orthogonalEdgeStyle;exitX=0.099;exitY=-0.01;exitDx=0;exitDy=0;exitPerimeter=0;entryX=0.102;entryY=0.99;entryDx=0;entryDy=0;entryPerimeter=0;" edge="1" parent="1" source="fNggspTmI-7kFoSFH9SS-7" target="fNggspTmI-7kFoSFH9SS-7">
          <mxGeometry relative="1" as="geometry">
            <mxPoint x="735" y="1000.4" as="sourcePoint" />
            <mxPoint x="895" y="1000.4" as="targetPoint" />
          </mxGeometry>
        </mxCell>
        <mxCell id="fNggspTmI-7kFoSFH9SS-12" style="edgeStyle=orthogonalEdgeStyle;rounded=0;orthogonalLoop=1;jettySize=auto;html=1;endArrow=none;endFill=0;" edge="1" parent="1" source="fNggspTmI-7kFoSFH9SS-2" target="fNggspTmI-7kFoSFH9SS-7">
          <mxGeometry relative="1" as="geometry">
            <mxPoint x="800" y="1060" as="sourcePoint" />
          </mxGeometry>
        </mxCell>
        <mxCell id="fNggspTmI-7kFoSFH9SS-13" value="&lt;font style=&quot;font-size: 12px;&quot;&gt;1&lt;/font&gt;" style="edgeLabel;html=1;align=center;verticalAlign=middle;resizable=0;points=[];fontSize=12;" vertex="1" connectable="0" parent="fNggspTmI-7kFoSFH9SS-12">
          <mxGeometry x="0.8112" relative="1" as="geometry">
            <mxPoint x="-8" y="-5" as="offset" />
          </mxGeometry>
        </mxCell>
        <mxCell id="fNggspTmI-7kFoSFH9SS-14" value="N" style="edgeLabel;html=1;align=center;verticalAlign=middle;resizable=0;points=[];fontSize=12;" vertex="1" connectable="0" parent="fNggspTmI-7kFoSFH9SS-12">
          <mxGeometry x="-0.8574" y="2" relative="1" as="geometry">
            <mxPoint y="-8" as="offset" />
          </mxGeometry>
        </mxCell>
        <mxCell id="fNggspTmI-7kFoSFH9SS-15" value="" style="endArrow=none;html=1;rounded=0;edgeStyle=orthogonalEdgeStyle;exitX=0.926;exitY=-0.013;exitDx=0;exitDy=0;exitPerimeter=0;entryX=0.926;entryY=0.993;entryDx=0;entryDy=0;entryPerimeter=0;" edge="1" parent="1" source="fNggspTmI-7kFoSFH9SS-2" target="fNggspTmI-7kFoSFH9SS-2">
          <mxGeometry relative="1" as="geometry">
            <mxPoint x="685" y="1080" as="sourcePoint" />
            <mxPoint x="845" y="1080" as="targetPoint" />
          </mxGeometry>
        </mxCell>
        <mxCell id="fNggspTmI-7kFoSFH9SS-16" style="edgeStyle=orthogonalEdgeStyle;rounded=0;orthogonalLoop=1;jettySize=auto;html=1;exitX=1;exitY=0.75;exitDx=0;exitDy=0;endArrow=none;endFill=0;" edge="1" parent="1" source="fNggspTmI-7kFoSFH9SS-18" target="fNggspTmI-7kFoSFH9SS-54">
          <mxGeometry relative="1" as="geometry">
            <mxPoint x="715" y="1250.0000000000002" as="targetPoint" />
            <Array as="points">
              <mxPoint x="715" y="1240" />
              <mxPoint x="715" y="1269" />
            </Array>
          </mxGeometry>
        </mxCell>
        <mxCell id="fNggspTmI-7kFoSFH9SS-17" value="&lt;font style=&quot;font-size: 12px;&quot;&gt;1&lt;/font&gt;" style="edgeLabel;html=1;align=center;verticalAlign=middle;resizable=0;points=[];" vertex="1" connectable="0" parent="fNggspTmI-7kFoSFH9SS-16">
          <mxGeometry x="-0.825" y="1" relative="1" as="geometry">
            <mxPoint y="-8" as="offset" />
          </mxGeometry>
        </mxCell>
        <mxCell id="fNggspTmI-7kFoSFH9SS-18" value="SecÃ§Ã£o" style="whiteSpace=wrap;html=1;align=center;" vertex="1" parent="1">
          <mxGeometry x="585" y="1210" width="100" height="40" as="geometry" />
        </mxCell>
        <mxCell id="fNggspTmI-7kFoSFH9SS-19" style="edgeStyle=orthogonalEdgeStyle;rounded=0;orthogonalLoop=1;jettySize=auto;html=1;endArrow=none;endFill=0;" edge="1" parent="1" source="fNggspTmI-7kFoSFH9SS-51" target="fNggspTmI-7kFoSFH9SS-2">
          <mxGeometry relative="1" as="geometry">
            <mxPoint x="635" y="1120.0000000000002" as="sourcePoint" />
          </mxGeometry>
        </mxCell>
        <mxCell id="fNggspTmI-7kFoSFH9SS-20" value="1" style="edgeLabel;html=1;align=center;verticalAlign=middle;resizable=0;points=[];fontSize=12;" vertex="1" connectable="0" parent="fNggspTmI-7kFoSFH9SS-19">
          <mxGeometry x="0.6884" relative="1" as="geometry">
            <mxPoint x="-9" as="offset" />
          </mxGeometry>
        </mxCell>
        <mxCell id="fNggspTmI-7kFoSFH9SS-21" value="N" style="edgeLabel;html=1;align=center;verticalAlign=middle;resizable=0;points=[];" vertex="1" connectable="0" parent="fNggspTmI-7kFoSFH9SS-19">
          <mxGeometry x="-0.6253" y="-1" relative="1" as="geometry">
            <mxPoint x="-9" as="offset" />
          </mxGeometry>
        </mxCell>
        <mxCell id="fNggspTmI-7kFoSFH9SS-22" style="edgeStyle=orthogonalEdgeStyle;rounded=0;orthogonalLoop=1;jettySize=auto;html=1;endArrow=none;endFill=0;" edge="1" parent="1" source="fNggspTmI-7kFoSFH9SS-51" target="fNggspTmI-7kFoSFH9SS-18">
          <mxGeometry relative="1" as="geometry">
            <mxPoint x="635" y="1160.0000000000002" as="sourcePoint" />
          </mxGeometry>
        </mxCell>
        <mxCell id="fNggspTmI-7kFoSFH9SS-23" value="N" style="edgeLabel;html=1;align=center;verticalAlign=middle;resizable=0;points=[];fontSize=12;" vertex="1" connectable="0" parent="fNggspTmI-7kFoSFH9SS-22">
          <mxGeometry x="0.576" y="-1" relative="1" as="geometry">
            <mxPoint x="-9" y="-1" as="offset" />
          </mxGeometry>
        </mxCell>
        <mxCell id="fNggspTmI-7kFoSFH9SS-24" value="N" style="edgeLabel;html=1;align=center;verticalAlign=middle;resizable=0;points=[];" vertex="1" connectable="0" parent="fNggspTmI-7kFoSFH9SS-22">
          <mxGeometry x="-0.68" relative="1" as="geometry">
            <mxPoint x="-8" as="offset" />
          </mxGeometry>
        </mxCell>
        <mxCell id="fNggspTmI-7kFoSFH9SS-25" value="Senhas" style="whiteSpace=wrap;html=1;align=center;" vertex="1" parent="1">
          <mxGeometry x="415" y="1210" width="100" height="40" as="geometry" />
        </mxCell>
        <mxCell id="fNggspTmI-7kFoSFH9SS-26" style="edgeStyle=orthogonalEdgeStyle;rounded=0;orthogonalLoop=1;jettySize=auto;html=1;endArrow=none;endFill=0;" edge="1" parent="1" source="fNggspTmI-7kFoSFH9SS-6" target="fNggspTmI-7kFoSFH9SS-1">
          <mxGeometry relative="1" as="geometry">
            <mxPoint x="460" y="880" as="sourcePoint" />
            <mxPoint x="355" y="1050" as="targetPoint" />
          </mxGeometry>
        </mxCell>
        <mxCell id="fNggspTmI-7kFoSFH9SS-27" value="&lt;font style=&quot;font-size: 12px;&quot;&gt;N&lt;/font&gt;" style="edgeLabel;html=1;align=center;verticalAlign=middle;resizable=0;points=[];fontSize=12;" vertex="1" connectable="0" parent="fNggspTmI-7kFoSFH9SS-26">
          <mxGeometry x="0.5229" y="-1" relative="1" as="geometry">
            <mxPoint x="-6" y="-9" as="offset" />
          </mxGeometry>
        </mxCell>
        <mxCell id="fNggspTmI-7kFoSFH9SS-28" value="&lt;font style=&quot;font-size: 12px;&quot;&gt;1&lt;/font&gt;" style="edgeLabel;html=1;align=center;verticalAlign=middle;resizable=0;points=[];" vertex="1" connectable="0" parent="fNggspTmI-7kFoSFH9SS-26">
          <mxGeometry x="-0.8189" relative="1" as="geometry">
            <mxPoint y="-11" as="offset" />
          </mxGeometry>
        </mxCell>
        <mxCell id="fNggspTmI-7kFoSFH9SS-29" style="edgeStyle=orthogonalEdgeStyle;rounded=0;orthogonalLoop=1;jettySize=auto;html=1;endArrow=none;endFill=0;" edge="1" parent="1" source="fNggspTmI-7kFoSFH9SS-25" target="fNggspTmI-7kFoSFH9SS-18">
          <mxGeometry relative="1" as="geometry">
            <mxPoint x="515" y="1230.0000000000002" as="sourcePoint" />
          </mxGeometry>
        </mxCell>
        <mxCell id="fNggspTmI-7kFoSFH9SS-30" value="N" style="edgeLabel;html=1;align=center;verticalAlign=middle;resizable=0;points=[];fontSize=12;" vertex="1" connectable="0" parent="fNggspTmI-7kFoSFH9SS-29">
          <mxGeometry x="0.66" relative="1" as="geometry">
            <mxPoint x="4" y="-10" as="offset" />
          </mxGeometry>
        </mxCell>
        <mxCell id="fNggspTmI-7kFoSFH9SS-31" value="1" style="edgeLabel;html=1;align=center;verticalAlign=middle;resizable=0;points=[];fontSize=12;" vertex="1" connectable="0" parent="fNggspTmI-7kFoSFH9SS-29">
          <mxGeometry x="-0.7048" relative="1" as="geometry">
            <mxPoint x="-1" y="-9" as="offset" />
          </mxGeometry>
        </mxCell>
        <mxCell id="fNggspTmI-7kFoSFH9SS-32" style="edgeStyle=orthogonalEdgeStyle;rounded=0;orthogonalLoop=1;jettySize=auto;html=1;endArrow=none;endFill=0;" edge="1" parent="1" source="fNggspTmI-7kFoSFH9SS-25" target="fNggspTmI-7kFoSFH9SS-35">
          <mxGeometry relative="1" as="geometry">
            <mxPoint x="415" y="1230.0000000000002" as="sourcePoint" />
          </mxGeometry>
        </mxCell>
        <mxCell id="fNggspTmI-7kFoSFH9SS-33" value="1" style="edgeLabel;html=1;align=center;verticalAlign=middle;resizable=0;points=[];fontSize=12;" vertex="1" connectable="0" parent="fNggspTmI-7kFoSFH9SS-32">
          <mxGeometry x="0.5867" y="-1" relative="1" as="geometry">
            <mxPoint x="-9" y="-1" as="offset" />
          </mxGeometry>
        </mxCell>
        <mxCell id="fNggspTmI-7kFoSFH9SS-34" value="1" style="edgeLabel;html=1;align=center;verticalAlign=middle;resizable=0;points=[];" vertex="1" connectable="0" parent="fNggspTmI-7kFoSFH9SS-32">
          <mxGeometry x="-0.6533" y="-1" relative="1" as="geometry">
            <mxPoint x="-8" as="offset" />
          </mxGeometry>
        </mxCell>
        <mxCell id="fNggspTmI-7kFoSFH9SS-35" value="Utilizador" style="whiteSpace=wrap;html=1;align=center;" vertex="1" parent="1">
          <mxGeometry x="415" y="1120" width="100" height="40" as="geometry" />
        </mxCell>
        <mxCell id="fNggspTmI-7kFoSFH9SS-36" value="AnÃ¡lise de Dados" style="whiteSpace=wrap;html=1;align=center;" vertex="1" parent="1">
          <mxGeometry x="575" y="1340" width="120" height="40" as="geometry" />
        </mxCell>
        <mxCell id="fNggspTmI-7kFoSFH9SS-37" style="edgeStyle=orthogonalEdgeStyle;rounded=0;orthogonalLoop=1;jettySize=auto;html=1;endArrow=none;endFill=0;" edge="1" parent="1" source="fNggspTmI-7kFoSFH9SS-36" target="fNggspTmI-7kFoSFH9SS-18">
          <mxGeometry relative="1" as="geometry">
            <mxPoint x="635" y="1300.0000000000002" as="sourcePoint" />
          </mxGeometry>
        </mxCell>
        <mxCell id="fNggspTmI-7kFoSFH9SS-38" value="1" style="edgeLabel;html=1;align=center;verticalAlign=middle;resizable=0;points=[];fontSize=12;" vertex="1" connectable="0" parent="fNggspTmI-7kFoSFH9SS-37">
          <mxGeometry x="0.7162" relative="1" as="geometry">
            <mxPoint x="-8" as="offset" />
          </mxGeometry>
        </mxCell>
        <mxCell id="fNggspTmI-7kFoSFH9SS-39" value="N" style="edgeLabel;html=1;align=center;verticalAlign=middle;resizable=0;points=[];" vertex="1" connectable="0" parent="fNggspTmI-7kFoSFH9SS-37">
          <mxGeometry x="-0.8048" y="3" relative="1" as="geometry">
            <mxPoint x="-6" y="-1" as="offset" />
          </mxGeometry>
        </mxCell>
        <mxCell id="fNggspTmI-7kFoSFH9SS-40" style="edgeStyle=orthogonalEdgeStyle;rounded=0;orthogonalLoop=1;jettySize=auto;html=1;endArrow=none;endFill=0;" edge="1" parent="1" source="fNggspTmI-7kFoSFH9SS-54" target="fNggspTmI-7kFoSFH9SS-18">
          <mxGeometry relative="1" as="geometry">
            <Array as="points">
              <mxPoint x="715" y="1269" />
              <mxPoint x="715" y="1295" />
              <mxPoint x="665" y="1295" />
            </Array>
            <mxPoint x="715" y="1287.0000000000002" as="sourcePoint" />
            <mxPoint x="665" y="1245.0000000000002" as="targetPoint" />
          </mxGeometry>
        </mxCell>
        <mxCell id="fNggspTmI-7kFoSFH9SS-41" value="N" style="edgeLabel;html=1;align=center;verticalAlign=middle;resizable=0;points=[];fontSize=12;" vertex="1" connectable="0" parent="fNggspTmI-7kFoSFH9SS-40">
          <mxGeometry x="0.8234" y="1" relative="1" as="geometry">
            <mxPoint x="-6" as="offset" />
          </mxGeometry>
        </mxCell>
        <mxCell id="fNggspTmI-7kFoSFH9SS-42" style="edgeStyle=orthogonalEdgeStyle;rounded=0;orthogonalLoop=1;jettySize=auto;html=1;endArrow=none;endFill=0;" edge="1" parent="1" source="fNggspTmI-7kFoSFH9SS-50" target="fNggspTmI-7kFoSFH9SS-2">
          <mxGeometry relative="1" as="geometry">
            <mxPoint x="515" y="1040.4" as="sourcePoint" />
          </mxGeometry>
        </mxCell>
        <mxCell id="fNggspTmI-7kFoSFH9SS-43" value="N" style="edgeLabel;html=1;align=center;verticalAlign=middle;resizable=0;points=[];fontSize=12;" vertex="1" connectable="0" parent="fNggspTmI-7kFoSFH9SS-42">
          <mxGeometry x="0.5609" relative="1" as="geometry">
            <mxPoint x="-49" y="-10" as="offset" />
          </mxGeometry>
        </mxCell>
        <mxCell id="fNggspTmI-7kFoSFH9SS-44" value="&lt;font style=&quot;font-size: 12px;&quot;&gt;1&lt;/font&gt;" style="edgeLabel;html=1;align=center;verticalAlign=middle;resizable=0;points=[];" vertex="1" connectable="0" parent="fNggspTmI-7kFoSFH9SS-42">
          <mxGeometry x="0.6331" y="1" relative="1" as="geometry">
            <mxPoint x="4" y="-9" as="offset" />
          </mxGeometry>
        </mxCell>
        <mxCell id="fNggspTmI-7kFoSFH9SS-45" style="edgeStyle=orthogonalEdgeStyle;rounded=0;orthogonalLoop=1;jettySize=auto;html=1;endArrow=none;endFill=0;" edge="1" parent="1" source="fNggspTmI-7kFoSFH9SS-50" target="fNggspTmI-7kFoSFH9SS-1">
          <mxGeometry relative="1" as="geometry">
            <mxPoint x="415" y="1040.4" as="sourcePoint" />
          </mxGeometry>
        </mxCell>
        <mxCell id="fNggspTmI-7kFoSFH9SS-46" value="N" style="edgeLabel;html=1;align=center;verticalAlign=middle;resizable=0;points=[];fontSize=12;" vertex="1" connectable="0" parent="fNggspTmI-7kFoSFH9SS-45">
          <mxGeometry x="0.6374" y="-1" relative="1" as="geometry">
            <mxPoint x="-11" y="63" as="offset" />
          </mxGeometry>
        </mxCell>
        <mxCell id="fNggspTmI-7kFoSFH9SS-47" value="1" style="edgeLabel;html=1;align=center;verticalAlign=middle;resizable=0;points=[];" vertex="1" connectable="0" parent="fNggspTmI-7kFoSFH9SS-45">
          <mxGeometry x="0.6546" relative="1" as="geometry">
            <mxPoint x="-10" as="offset" />
          </mxGeometry>
        </mxCell>
        <mxCell id="fNggspTmI-7kFoSFH9SS-48" value="" style="endArrow=none;html=1;rounded=0;edgeStyle=orthogonalEdgeStyle;entryX=1;entryY=0.25;entryDx=0;entryDy=0;exitX=0;exitY=0.25;exitDx=0;exitDy=0;" edge="1" parent="1" source="fNggspTmI-7kFoSFH9SS-2" target="fNggspTmI-7kFoSFH9SS-2">
          <mxGeometry relative="1" as="geometry">
            <mxPoint x="365" y="1000" as="sourcePoint" />
            <mxPoint x="525" y="1000" as="targetPoint" />
          </mxGeometry>
        </mxCell>
        <mxCell id="fNggspTmI-7kFoSFH9SS-49" value="" style="endArrow=none;html=1;rounded=0;edgeStyle=orthogonalEdgeStyle;exitX=0.895;exitY=1.002;exitDx=0;exitDy=0;entryX=0.895;entryY=0.023;entryDx=0;entryDy=0;entryPerimeter=0;exitPerimeter=0;" edge="1" parent="1" source="fNggspTmI-7kFoSFH9SS-1" target="fNggspTmI-7kFoSFH9SS-1">
          <mxGeometry relative="1" as="geometry">
            <mxPoint x="265" y="1100" as="sourcePoint" />
            <mxPoint x="425" y="1100" as="targetPoint" />
          </mxGeometry>
        </mxCell>
        <mxCell id="fNggspTmI-7kFoSFH9SS-50" value="Gestor/Estabelecimento" style="whiteSpace=wrap;html=1;align=center;" vertex="1" parent="1">
          <mxGeometry x="360" y="1020" width="140" height="40" as="geometry" />
        </mxCell>
        <mxCell id="fNggspTmI-7kFoSFH9SS-51" value="SecÃ§Ãµes/Estabelecimento" style="whiteSpace=wrap;html=1;align=center;" vertex="1" parent="1">
          <mxGeometry x="560" y="1120" width="150" height="40" as="geometry" />
        </mxCell>
        <mxCell id="fNggspTmI-7kFoSFH9SS-52" value="" style="endArrow=none;html=1;rounded=0;edgeStyle=orthogonalEdgeStyle;entryX=1;entryY=0.25;entryDx=0;entryDy=0;exitX=0;exitY=0.25;exitDx=0;exitDy=0;" edge="1" parent="1" source="fNggspTmI-7kFoSFH9SS-36" target="fNggspTmI-7kFoSFH9SS-36">
          <mxGeometry relative="1" as="geometry">
            <mxPoint x="375" y="1430" as="sourcePoint" />
            <mxPoint x="535" y="1430" as="targetPoint" />
          </mxGeometry>
        </mxCell>
        <mxCell id="fNggspTmI-7kFoSFH9SS-53" value="" style="endArrow=none;html=1;rounded=0;edgeStyle=orthogonalEdgeStyle;exitX=0;exitY=0.25;exitDx=0;exitDy=0;entryX=1;entryY=0.25;entryDx=0;entryDy=0;" edge="1" parent="1" source="fNggspTmI-7kFoSFH9SS-18" target="fNggspTmI-7kFoSFH9SS-18">
          <mxGeometry relative="1" as="geometry">
            <mxPoint x="825" y="1250" as="sourcePoint" />
            <mxPoint x="985" y="1250" as="targetPoint" />
          </mxGeometry>
        </mxCell>
        <mxCell id="fNggspTmI-7kFoSFH9SS-54" value="SecÃ§Ã£o/SubSecÃ§Ã£o" style="whiteSpace=wrap;html=1;align=center;" vertex="1" parent="1">
          <mxGeometry x="695" y="1250" width="115" height="40" as="geometry" />
        </mxCell>
      </root>
    </mxGraphModel>
  </diagram>
</mxfile>
